<?xml version="1.0" encoding="utf-8"?>
<svg id="Layer_1" data-name="Layer 1" viewBox="0 0 349.03 322.78" xmlns="http://www.w3.org/2000/svg">
  <defs>
    <style>.cls-1{fill:#010101;}.cls-2{fill:#ed230f;}</style>
  </defs>
  <title>dotmote_trace</title>
  <rect y="0.224" width="368" height="341" style="fill: rgb(135, 126, 126);" transform="matrix(1, 0.000272, -0.000272, 1, -9.90979, 0.776)"/>
  <path class="cls-1" d="M 138.32 126.6 C 134.54 128.6 130.78 130.7 126.98 132.68 C 126.13 133.12 126.07 133.47 126.55 134.26 C 133.524 146.268 145.022 154.978 158.47 158.44 C 169.26 161.394 180.721 160.734 191.1 156.56 C 191.96 156.23 192.22 156.26 192.4 157.28 C 194.1 166.9 195.847 176.51 197.64 186.11 C 197.8 186.95 197.36 187.03 196.8 187.2 C 187.685 190.164 178.1 191.412 168.53 190.88 C 138.44 189.05 115.53 175.15 99.79 149.48 C 98.79 147.86 98.85 147.84 97.17 148.74 L 81.71 157.08 C 81.42 157.24 81.11 157.37 80.71 157.57 C 83.49 138.01 86.26 118.57 89.04 98.98 L 135.91 121.12 C 136.891 122.863 137.699 124.699 138.32 126.6 Z"/>
  <path class="cls-1" d="M 171.02 1 L 218.71 36.15 L 171.17 71.18 C 170.992 70.832 170.939 70.433 171.02 70.05 C 171.02 64.52 171.02 58.99 171.02 53.46 C 171.02 52.6 170.79 52.46 169.96 52.46 C 146.017 53.31 125.664 70.211 120.43 93.59 C 120.31 94.1 120.21 94.59 120.11 95.13 C 119.76 95.22 119.53 95.01 119.28 94.9 C 110.44 90.82 101.62 86.72 92.76 82.69 C 91.76 82.26 91.63 81.86 91.94 80.89 C 96.795 64.88 106.357 50.702 119.38 40.2 C 131.044 30.681 145.099 24.548 160.01 22.47 C 163.041 22.025 166.097 21.774 169.16 21.72 C 171 21.72 171 21.72 171 19.89 L 171 1 Z"/>
  <path class="cls-1" d="M 210.08 122.73 C 213.08 124.2 216.08 125.64 218.99 127.17 C 219.79 127.59 220.05 127.47 220.42 126.67 C 229.733 106.213 225.006 82.098 208.66 66.67 C 207.55 65.67 207.57 65.67 208.81 64.67 C 216.383 58.97 223.94 53.25 231.48 47.51 C 232.16 46.99 232.48 46.93 233.15 47.61 C 244.749 59.868 252.336 75.37 254.9 92.05 C 257.56 108.413 255.17 125.199 248.05 140.17 C 247.62 141.1 247.62 141.48 248.63 141.97 C 254.36 144.75 260.05 147.63 265.97 150.59 L 213.24 177.59 L 211.84 169.59 L 205.66 133.98 C 205.28 131.82 204.92 129.65 204.56 127.48 C 205.241 127.438 205.923 127.544 206.56 127.79 C 207.34 128.2 208.296 127.752 208.48 126.89 C 208.94 125.52 209.53 124.13 210.08 122.73 Z"/>
  <path class="cls-1" d="M 147.73 202.46 C 149.265 200.633 151.127 199.107 153.22 197.96 C 159.15 194.96 169.47 194.58 176.09 202.1 C 176.69 202.77 176.97 202.86 177.66 202.1 C 182.3 197.33 188.09 195.7 194.58 195.97 C 198.757 196.177 202.731 197.832 205.82 200.65 C 209.455 203.869 211.474 208.536 211.33 213.39 C 211.49 225.31 211.38 237.23 211.42 249.14 C 211.42 249.91 211.11 249.96 210.49 249.96 C 207.58 249.96 204.67 249.91 201.75 249.96 C 200.85 249.96 200.64 249.71 200.65 248.84 C 200.65 238.6 200.65 228.37 200.65 218.13 C 200.735 215.958 200.275 213.798 199.31 211.85 C 197.324 208.346 193.458 206.343 189.45 206.74 C 183.45 207.17 179.58 211.36 179.57 217.96 C 179.57 228.12 179.57 238.28 179.57 248.44 C 179.57 249 180.1 249.96 178.82 250 C 178.63 250 178.68 250.39 178.68 250.61 C 178.68 258.79 178.68 266.97 178.68 275.15 C 178.68 275.15 178.68 275.15 178.86 275.27 C 180.667 273.64 182.653 272.221 184.78 271.04 C 190.57 267.67 201.59 268.86 206.52 275.75 C 208.722 278.811 209.99 282.444 210.17 286.21 C 210.643 293.481 210.597 300.776 210.03 308.04 C 209.23 317.6 201.09 324.09 191.76 323.68 C 186.997 323.573 182.473 321.572 179.19 318.12 L 178.63 317.6 C 178.63 319.16 178.57 320.52 178.63 321.88 C 178.63 322.8 178.51 323.17 177.45 323.14 C 174.61 323.05 171.77 323.06 168.93 323.14 C 168 323.14 167.86 322.82 167.86 322 C 167.86 300.667 167.86 279.37 167.86 258.11 C 167.86 255.203 167.86 252.29 167.86 249.37 C 167.86 248.9 167.63 248.29 168.51 248.25 C 168.89 248.25 168.78 247.78 168.78 247.5 C 168.78 237.42 168.84 227.33 168.73 217.24 C 168.73 212 165.87 208.24 161.48 207.12 C 153.99 205.12 147.71 209.91 147.66 217.67 C 147.61 225.43 147.66 232.92 147.66 240.54 C 147.66 243.38 147.66 246.22 147.66 249.05 C 147.66 249.71 147.54 249.96 146.81 249.95 C 143.81 249.9 140.81 249.89 137.81 249.95 C 136.97 249.95 136.86 249.64 136.86 248.95 C 136.86 242.3 136.86 235.65 136.86 229.01 C 136.86 218.62 136.86 208.23 136.86 197.85 C 136.86 196.85 137.15 196.62 138.11 196.64 C 140.91 196.71 143.71 196.72 146.51 196.64 C 147.51 196.64 147.69 196.93 147.65 197.83 C 147.67 199.22 147.73 200.67 147.73 202.46 Z M 199.73 296.33 C 199.73 294.84 199.73 293.33 199.73 291.85 C 199.735 289.457 199.238 287.089 198.27 284.9 C 197.603 283.043 196.183 281.555 194.36 280.8 C 191.631 279.707 188.616 279.553 185.79 280.36 C 182.24 281.36 180.33 283.97 179.55 287.44 C 178.409 292.861 178.301 298.449 179.23 303.91 C 179.443 306.039 180.254 308.064 181.57 309.75 C 184.19 312.83 187.64 313.31 191.35 312.85 C 194.837 312.541 197.77 310.109 198.72 306.74 C 199.94 303.33 199.72 299.83 199.74 296.33 Z"/>
  <path class="cls-2" d="M 210.08 122.73 C 209.53 124.13 208.94 125.52 208.44 126.94 C 208.256 127.802 207.3 128.25 206.52 127.84 C 205.883 127.594 205.201 127.488 204.52 127.53 C 202.977 126.979 201.365 126.643 199.73 126.53 C 199.156 126.493 198.61 126.783 198.32 127.28 C 197.362 128.613 196.232 129.813 194.96 130.85 C 194.299 131.317 194.026 132.165 194.29 132.93 C 194.85 134.86 195.29 136.81 195.88 138.75 C 196.34 140.35 196.32 140.45 194.88 141.12 C 191.32 142.73 187.74 144.31 184.21 145.97 C 183.566 146.428 182.664 146.163 182.37 145.43 C 181.25 143.68 180.06 141.97 178.94 140.21 C 178.533 139.381 177.611 138.939 176.71 139.14 C 175.156 139.357 173.581 139.384 172.02 139.22 C 171.185 139.096 170.368 139.541 170.02 140.31 C 169.02 142.19 167.84 144.03 166.82 145.93 C 166.55 146.712 165.629 147.047 164.92 146.62 C 161.2 145.18 157.49 143.75 153.74 142.39 C 152.887 142.241 152.398 141.335 152.74 140.54 C 153.2 138.54 153.58 136.45 154.02 134.41 C 154.267 133.476 153.857 132.493 153.02 132.01 C 151.653 131.038 150.422 129.888 149.36 128.59 C 149.048 128.159 148.482 127.997 147.99 128.2 C 145.77 128.82 143.52 129.36 141.31 130 C 140.598 130.349 139.747 129.943 139.57 129.17 C 139.303 128.243 138.869 127.372 138.29 126.6 C 137.665 124.698 136.855 122.863 135.87 121.12 C 135.548 120.053 135.106 119.026 134.55 118.06 C 134.124 117.489 134.351 116.67 135.01 116.4 C 136.86 115.21 138.67 113.96 140.52 112.78 C 141.228 112.407 141.609 111.616 141.46 110.83 C 141.194 109.177 141.15 107.495 141.33 105.83 C 141.423 105.018 140.966 104.242 140.21 103.93 C 138.34 102.87 136.49 101.75 134.59 100.73 C 133.73 100.27 133.64 99.73 133.96 98.91 C 135.41 95.16 136.84 91.4 138.22 87.62 C 138.347 86.88 139.119 86.44 139.82 86.71 C 141.82 87.14 143.82 87.48 145.82 87.95 C 146.843 88.312 147.979 87.891 148.52 86.95 C 149.359 85.752 150.37 84.684 151.52 83.78 C 152.277 83.26 152.582 82.29 152.26 81.43 C 151.63 79.37 151.16 77.25 150.54 75.18 C 150.225 74.544 150.581 73.779 151.27 73.61 C 155.043 71.91 158.807 70.2 162.56 68.48 C 163.174 68.115 163.968 68.38 164.24 69.04 C 165.36 70.8 166.57 72.5 167.67 74.27 C 168.096 75.172 169.107 75.64 170.07 75.38 C 171.506 75.117 172.974 75.083 174.42 75.28 C 175.411 75.468 176.398 74.939 176.79 74.01 C 177.79 72.19 178.89 70.41 179.87 68.57 C 180.29 67.78 180.74 67.57 181.56 67.88 C 185.39 69.34 189.22 70.79 193.06 72.2 C 193.754 72.338 194.156 73.07 193.9 73.73 C 193.48 75.73 193.15 77.73 192.66 79.73 C 192.275 80.822 192.725 82.034 193.73 82.61 C 194.918 83.389 195.969 84.358 196.84 85.48 C 197.348 86.247 198.328 86.549 199.18 86.2 C 201.05 85.69 202.93 85.2 204.79 84.66 C 206.39 84.2 206.55 84.26 207.24 85.8 C 208.83 89.33 210.39 92.87 212.03 96.38 C 212.469 96.988 212.236 97.847 211.55 98.15 C 209.74 99.32 207.97 100.56 206.14 101.72 C 205.312 102.135 204.894 103.077 205.14 103.97 C 205.454 105.395 205.515 106.864 205.32 108.31 C 205.118 109.334 205.66 110.36 206.62 110.77 C 208.32 111.7 209.99 112.67 211.68 113.62 C 213.02 114.37 213.07 114.52 212.52 116 C 211.71 118.26 210.9 120.49 210.08 122.73 Z M 155.08 107.3 C 155.111 121.341 170.33 130.083 182.475 123.036 C 194.619 115.989 194.581 98.438 182.405 91.444 C 179.647 89.859 176.521 89.023 173.34 89.02 C 163.264 89.025 155.115 97.224 155.17 107.3 Z"/>
  <path class="cls-1" d="M 31.86 201.98 C 32.09 201.64 31.96 201.26 31.96 200.9 C 31.96 192.69 31.96 184.47 31.96 176.25 C 31.96 175.25 32.26 175.03 33.21 175.05 C 36.05 175.11 38.89 175.1 41.72 175.05 C 42.52 175.05 42.72 175.28 42.72 176.05 C 42.67 178.22 42.72 180.38 42.72 182.55 C 42.72 204.59 42.72 226.627 42.72 248.66 C 42.72 249.66 42.48 249.97 41.44 249.94 C 38.61 249.87 35.77 249.94 32.93 249.94 C 32.22 249.94 31.93 249.79 31.93 249.03 C 31.99 247.58 31.93 246.13 31.93 244.64 C 31.47 244.64 31.32 244.99 31.1 245.21 C 23.004 253.25 9.611 252.031 3.1 242.66 C 1.758 240.623 0.95 238.281 0.75 235.85 C -0.425 226.992 -0.335 218.012 1.02 209.18 C 2.12 202.66 8.02 196.86 15.89 196.09 C 21.7 195.53 26.5 197.44 30.74 201.21 C 31.04 201.48 31.37 201.73 31.68 201.98 C 31.76 201.99 31.81 201.98 31.86 201.98 Z M 31.98 222.9 C 31.86 220.74 32.14 218.22 31.58 215.76 C 31.02 213.3 30.43 210.76 28.44 208.98 C 25.89 206.66 22.77 206.53 19.59 206.79 C 15.54 207.12 13.06 209.36 11.89 213.2 C 11.234 215.612 10.898 218.1 10.89 220.6 C 10.74 225.12 10.68 229.66 12.22 234 C 13.225 237.081 15.947 239.282 19.17 239.62 C 20.687 239.86 22.233 239.86 23.75 239.62 C 26.869 239.284 29.523 237.2 30.59 234.25 C 32.01 230.68 31.91 226.96 31.98 222.9 Z"/>
  <path class="cls-1" d="M 122.3 283.39 C 119.65 281.39 117.05 279.39 114.42 277.39 C 113.76 276.9 114.2 276.6 114.5 276.25 C 117.166 272.975 120.889 270.73 125.03 269.9 C 131.348 268.562 137.91 268.945 144.03 271.01 C 150.36 273.16 153.35 277.86 154.03 284.28 C 154.1 285.061 154.13 285.846 154.12 286.63 C 154.12 298.4 154.12 310.16 154.12 321.92 C 154.12 322.92 153.85 323.16 152.89 323.14 C 150.02 323.07 147.14 323.09 144.26 323.14 C 143.58 323.14 143.34 322.97 143.38 322.27 C 143.426 321.026 143.392 319.78 143.28 318.54 C 142.2 320.154 140.694 321.438 138.93 322.25 C 137.114 323.045 135.169 323.502 133.19 323.6 C 127.82 323.97 122.59 323.6 117.95 320.4 C 108.33 313.8 109.47 299.81 117.95 294.4 C 120.404 292.875 123.205 291.998 126.09 291.85 C 131.46 291.48 136.84 291.72 142.22 291.7 C 143.13 291.7 143.45 291.48 143.39 290.53 C 143.31 289.04 143.39 287.53 143.39 286.05 C 143.565 283.325 141.782 280.859 139.14 280.17 C 135.038 278.948 130.677 278.882 126.54 279.98 C 124.74 280.528 123.221 281.749 122.3 283.39 Z M 135.69 300.57 L 130.76 300.57 C 128.628 300.49 126.505 300.879 124.54 301.71 C 122.99 302.339 121.846 303.688 121.48 305.32 C 120.664 308.439 122.416 311.655 125.48 312.66 C 129.98 314.31 134.57 313.91 139.14 312.83 C 141.01 312.395 142.445 310.896 142.8 309.01 C 143.52 306.45 143.32 303.83 143.37 301.23 C 143.37 300.54 142.98 300.56 142.5 300.56 C 140.25 300.55 137.97 300.54 135.69 300.54 Z"/>
  <path class="cls-1" d="M 332.38 227.31 C 327.22 227.31 322.07 227.31 316.92 227.31 C 316.07 227.31 315.78 227.45 315.8 228.39 C 316.01 235.75 321.72 240.9 329.18 240.46 C 333.06 240.262 336.732 238.646 339.5 235.92 C 340.06 235.39 340.36 235.4 340.93 235.92 C 343.02 237.78 345.16 239.59 347.31 241.39 C 347.76 241.77 347.9 242 347.42 242.51 C 339.982 250.374 328.431 252.769 318.48 248.51 C 311.74 245.75 308.04 240.41 306.32 233.69 C 304.2 225.958 304.49 217.763 307.15 210.2 C 310.35 201.2 316.87 196.42 326.38 196.04 C 337.28 195.6 347.49 202.8 348.81 215.17 C 349.21 219 348.9 222.85 349.02 226.7 C 349.02 227.56 348.5 227.33 348.02 227.33 C 342.84 227.32 337.61 227.31 332.38 227.31 Z M 327.01 218.51 C 330.48 218.51 333.95 218.51 337.42 218.51 C 338 218.51 338.33 218.44 338.26 217.74 C 338.167 215.236 337.449 212.795 336.17 210.64 C 334.04 207.42 330.9 206.12 327.17 206.09 C 323.44 206.06 320.07 207.29 317.9 210.68 C 316.695 212.79 315.984 215.146 315.82 217.57 C 315.73 218.3 315.93 218.57 316.7 218.52 C 320.17 218.49 323.58 218.51 327.01 218.51 Z"/>
  <path class="cls-1" d="M 223.3 222.68 C 223.26 218.684 223.689 214.696 224.58 210.8 C 226.985 202.754 234.013 196.959 242.37 196.13 C 244.703 195.989 247.044 196.036 249.37 196.27 C 257.46 196.97 265.78 204.98 266.68 213.74 C 267.444 220.308 267.386 226.946 266.51 233.5 C 265.79 238.4 263.21 242.18 259.63 245.45 C 252.42 252.02 238.71 252.64 230.25 244.88 C 226.4 241.309 224.051 236.408 223.68 231.17 C 223.409 228.348 223.283 225.515 223.3 222.68 Z M 256.42 223.24 C 256.42 221.71 256.51 220.17 256.42 218.65 C 256.433 216.705 256.094 214.774 255.42 212.95 C 253.804 209.071 249.961 206.592 245.76 206.72 C 240.32 206.6 235.82 209.35 234.76 215.25 C 233.859 220.337 233.822 225.54 234.65 230.64 C 234.979 233.979 236.978 236.923 239.96 238.46 C 241.515 239.247 243.219 239.697 244.96 239.78 C 250.422 240.215 255.293 236.357 256.12 230.94 C 256.495 228.391 256.595 225.81 256.42 223.24 Z"/>
  <path class="cls-1" d="M 95.95 224.5 C 95.922 227.784 95.637 231.06 95.1 234.3 C 94.263 238.632 91.922 242.528 88.49 245.3 C 81.55 251.21 73.59 252.01 65.4 248.84 C 57.57 245.84 53.34 239.64 52.4 231.26 C 51.741 225.357 51.819 219.394 52.63 213.51 C 53.94 204.39 62.17 196.39 71.88 196.07 C 74.377 195.971 76.878 196.108 79.35 196.48 C 86.86 197.64 94.84 205.48 95.51 214.43 C 95.76 217.79 96.01 221.13 95.95 224.5 Z M 85.21 223.5 C 85.21 221.27 85.09 219.22 85 217.17 C 84.73 211.5 80.79 206.97 74.84 206.72 C 69.42 206.5 64.57 209.07 63.41 215.04 C 62.405 220.413 62.405 225.927 63.41 231.3 C 63.892 234.545 65.996 237.32 68.99 238.66 C 70.415 239.317 71.953 239.694 73.52 239.77 C 79.077 240.254 84.038 236.296 84.8 230.77 C 85.116 228.364 85.24 225.936 85.17 223.51 Z"/>
  <path class="cls-1" d="M 241.38 269.19 C 248.158 269.081 254.754 271.385 259.99 275.69 C 260.69 276.25 260.85 276.58 260.19 277.31 C 258.39 279.31 256.65 281.36 254.94 283.44 C 254.43 284.06 254.12 284.12 253.44 283.65 C 249.168 280.483 243.905 278.948 238.6 279.32 C 236.31 279.49 234.02 279.74 232.37 281.62 C 230.13 284.17 229.84 288.15 234.14 289.88 C 236.3 290.76 238.59 290.75 240.85 290.95 C 243.85 291.23 246.85 291.28 249.85 291.82 C 257.36 293.18 261.57 298.07 262.04 305.68 C 262.56 314.04 258.36 319.44 250.17 322.06 C 239.02 325.63 228.66 323.6 219.31 316.5 C 218.54 315.91 217.82 315.26 217.06 314.66 C 216.62 314.32 216.66 314.06 217.06 313.66 C 219.26 311.533 221.447 309.39 223.62 307.23 C 223.99 306.86 224.18 306.94 224.5 307.23 C 229.5 312.14 235.58 313.91 242.41 313.54 C 244.832 313.543 247.195 312.792 249.17 311.39 C 251.321 309.756 252.059 306.853 250.95 304.39 C 250.06 302.5 248.27 301.96 246.42 301.76 C 242.42 301.32 238.42 301.06 234.42 300.61 C 230.811 300.312 227.402 298.824 224.73 296.38 C 219.67 291.63 219.24 285.82 221.23 279.59 C 222.55 275.44 225.73 273.01 229.49 271.25 C 232.9 269.59 236.63 269.16 241.38 269.19 Z"/>
  <path class="cls-1" d="M 107.81 221.87 C 107.81 216.53 107.81 211.19 107.81 205.87 C 107.81 205.06 107.67 204.74 106.81 204.8 C 105.62 204.89 104.42 204.8 103.22 204.8 C 102.65 204.8 102.44 204.64 102.45 204.04 C 102.45 201.8 102.45 199.56 102.45 197.32 C 102.45 196.69 102.7 196.57 103.25 196.59 C 104.37 196.59 105.5 196.51 106.61 196.59 C 107.72 196.67 107.85 196.26 107.84 195.3 C 107.84 190.67 107.84 186.03 107.84 181.4 C 107.84 180.57 108.02 180.33 108.84 180.35 C 111.75 180.41 114.67 180.4 117.58 180.35 C 118.36 180.35 118.58 180.55 118.58 181.35 C 118.58 186.02 118.58 190.69 118.53 195.35 C 118.53 196.43 118.86 196.63 119.83 196.59 C 121.73 196.52 123.64 196.59 125.54 196.59 C 126.18 196.59 126.38 196.79 126.37 197.42 C 126.37 199.59 126.37 201.75 126.37 203.92 C 126.37 204.61 126.17 204.82 125.48 204.81 C 123.48 204.81 121.48 204.81 119.43 204.81 C 118.76 204.81 118.54 204.95 118.54 205.67 C 118.54 215.86 118.54 226.06 118.54 236.26 C 118.54 238.52 119.54 239.57 121.72 239.77 C 122.951 239.857 124.187 239.873 125.42 239.82 C 126.06 239.82 126.35 239.92 126.34 240.66 C 126.34 243.5 126.34 246.34 126.34 249.18 C 126.34 249.56 126.34 249.95 125.81 249.94 C 123.05 249.88 120.27 250.18 117.54 249.58 C 111.734 248.529 107.586 243.366 107.81 237.47 C 107.78 232.26 107.81 227.07 107.81 221.87 Z"/>
  <path class="cls-1" d="M 279.1 221.8 C 279.1 216.46 279.1 211.12 279.1 205.8 C 279.1 205.02 278.92 204.8 278.1 204.8 C 276.95 204.87 275.79 204.8 274.63 204.8 C 273.98 204.8 273.69 204.68 273.71 203.94 C 273.71 201.78 273.71 199.61 273.71 197.45 C 273.71 196.73 273.95 196.56 274.61 196.58 C 275.73 196.58 276.86 196.58 277.97 196.58 C 278.82 196.64 279.1 196.43 279.09 195.51 C 279.04 190.85 279.09 186.18 279.04 181.51 C 279.04 180.57 279.29 180.33 280.22 180.35 C 283.09 180.41 285.97 180.4 288.84 180.35 C 289.64 180.35 289.84 180.56 289.84 181.35 C 289.84 186.1 289.84 190.84 289.84 195.58 C 289.84 196.46 290.09 196.58 290.9 196.58 C 292.9 196.52 294.85 196.58 296.83 196.58 C 297.55 196.58 297.71 196.8 297.7 197.47 C 297.66 199.643 297.66 201.81 297.7 203.97 C 297.7 204.61 297.51 204.81 296.88 204.8 C 294.82 204.8 292.77 204.8 290.71 204.8 C 290.01 204.8 289.85 205 289.85 205.67 C 289.85 215.87 289.85 226.06 289.85 236.26 C 289.85 238.49 290.85 239.56 293.05 239.76 C 294.318 239.847 295.59 239.863 296.86 239.81 C 297.51 239.81 297.67 240.02 297.67 240.64 C 297.67 243.48 297.67 246.32 297.67 249.16 C 297.67 249.51 297.78 249.94 297.17 249.93 C 294.45 249.93 291.7 250.18 289.01 249.61 C 282.85 248.31 279.17 243.68 279.12 237.27 C 279.07 232.11 279.1 226.96 279.1 221.8 Z"/>
  <path class="cls-1" d="M 88.31 280.45 C 88.31 270.097 88.31 259.763 88.31 249.45 C 88.31 248.51 88.54 248.27 89.47 248.3 C 92.27 248.36 95.07 248.37 97.87 248.3 C 98.87 248.3 99.09 248.56 99.09 249.54 C 99.09 269.22 99.09 288.887 99.09 308.54 C 99.09 308.92 99.09 309.29 99.09 309.66 C 98.943 311.414 100.33 312.916 102.09 312.91 C 103.318 313.003 104.55 313.027 105.78 312.98 C 106.45 312.98 106.78 313.07 106.78 313.87 C 106.78 316.67 106.78 319.47 106.78 322.28 C 106.78 322.74 106.78 323.15 106.12 323.13 C 103.55 323.04 100.97 323.28 98.42 322.8 C 96.245 322.431 94.188 321.55 92.42 320.23 C 89.29 317.81 88.42 314.4 88.42 310.7 C 88.28 300.61 88.31 290.53 88.31 280.45 Z"/>
</svg>